<svg width="15" height="14" viewBox="0 0 15 14" fill="none" xmlns="http://www.w3.org/2000/svg">
<g clip-path="url(#clip0_7_72)">
<path d="M7.06506 0C5.1634 0 4.92598 0.00875 4.17931 0.042C3.43381 0.077 2.92631 0.19425 2.48006 0.3675C2.01981 0.546 1.62898 0.78575 1.2399 1.17483C0.850813 1.56392 0.61048 1.95417 0.432563 2.415C0.259313 2.86125 0.14148 3.36875 0.107063 4.11425C0.0720635 4.86092 0.0650635 5.09833 0.0650635 7C0.0650635 8.90167 0.0738135 9.13908 0.107063 9.88575C0.142063 10.6307 0.259313 11.1388 0.432563 11.585C0.611063 12.0447 0.850813 12.4361 1.2399 12.8252C1.62898 13.2137 2.01923 13.4546 2.48006 13.6325C2.9269 13.8052 3.4344 13.9236 4.17931 13.958C4.92598 13.993 5.1634 14 7.06506 14C8.96673 14 9.20415 13.9912 9.95081 13.958C10.6957 13.923 11.2038 13.8052 11.6501 13.6325C12.1097 13.454 12.5011 13.2137 12.8902 12.8252C13.2787 12.4361 13.5196 12.0464 13.6976 11.585C13.8702 11.1388 13.9886 10.6307 14.0231 9.88575C14.0581 9.13908 14.0651 8.90167 14.0651 7C14.0651 5.09833 14.0563 4.86092 14.0231 4.11425C13.9881 3.36933 13.8702 2.86067 13.6976 2.415C13.5191 1.95475 13.2787 1.56392 12.8902 1.17483C12.5011 0.78575 12.1115 0.545417 11.6501 0.3675C11.2038 0.19425 10.6957 0.0764167 9.95081 0.042C9.20415 0.007 8.96673 0 7.06506 0ZM7.06506 1.26C8.93348 1.26 9.15631 1.26933 9.89423 1.30142C10.5767 1.3335 10.9471 1.44667 11.1933 1.5435C11.5211 1.67008 11.7533 1.82175 11.9995 2.06617C12.2439 2.31117 12.3956 2.54392 12.5221 2.87175C12.6178 3.11792 12.7321 3.48833 12.7631 4.17083C12.7963 4.90933 12.8039 5.131 12.8039 7C12.8039 8.869 12.7951 9.09125 12.7607 9.82917C12.7251 10.5117 12.6114 10.8821 12.5151 11.1282C12.3845 11.4561 12.2357 11.6882 11.9907 11.9344C11.7463 12.1788 11.5101 12.3305 11.1857 12.4571C10.9407 12.5527 10.5645 12.6671 9.88198 12.698C9.13881 12.7312 8.92006 12.7388 7.04756 12.7388C5.17448 12.7388 4.95573 12.7301 4.21315 12.6957C3.53006 12.6601 3.15381 12.5463 2.90881 12.4501C2.5769 12.3194 2.34881 12.1707 2.1044 11.9257C1.85881 11.6812 1.7019 11.445 1.5794 11.1207C1.48315 10.8757 1.36998 10.4994 1.3344 9.81692C1.30815 9.08192 1.29881 8.855 1.29881 6.99125C1.29881 5.12692 1.30815 4.89942 1.3344 4.15567C1.36998 3.47317 1.48315 3.0975 1.5794 2.8525C1.7019 2.52 1.85881 2.2925 2.1044 2.04692C2.34881 1.8025 2.5769 1.645 2.90881 1.52308C3.15381 1.42625 3.5219 1.3125 4.2044 1.2775C4.94815 1.25125 5.1669 1.2425 7.03881 1.2425L7.06506 1.26ZM7.06506 3.4055C5.07881 3.4055 3.47056 5.0155 3.47056 7C3.47056 8.98625 5.08056 10.5945 7.06506 10.5945C9.05131 10.5945 10.6596 8.9845 10.6596 7C10.6596 5.01375 9.04956 3.4055 7.06506 3.4055ZM7.06506 9.33333C5.7759 9.33333 4.73173 8.28917 4.73173 7C4.73173 5.71083 5.7759 4.66667 7.06506 4.66667C8.35423 4.66667 9.3984 5.71083 9.3984 7C9.3984 8.28917 8.35423 9.33333 7.06506 9.33333ZM11.6419 3.26375C11.6419 3.7275 11.2651 4.10375 10.8019 4.10375C10.3381 4.10375 9.9619 3.72692 9.9619 3.26375C9.9619 2.80058 10.3387 2.42433 10.8019 2.42433C11.2645 2.42375 11.6419 2.80058 11.6419 3.26375Z" fill="black"/>
</g>
<defs>
<clipPath id="clip0_7_72">
<rect width="14" height="14" fill="white" transform="translate(0.0650635)"/>
</clipPath>
</defs>
</svg>
