<svg width="20" height="14" viewBox="0 0 20 14" fill="none" xmlns="http://www.w3.org/2000/svg">
<path d="M19.5194 2.18652C19.4071 1.76368 19.1857 1.37776 18.8774 1.0674C18.5691 0.757035 18.1846 0.533127 17.7625 0.418096C16.2135 9.86949e-08 10 0 10 0C10 0 3.78653 9.86949e-08 2.23668 0.418096C1.81478 0.53333 1.43053 0.757319 1.12237 1.06766C0.81421 1.378 0.592933 1.76382 0.480676 2.18652C0.0650635 3.7463 0.0650635 7 0.0650635 7C0.0650635 7 0.0650635 10.2537 0.480676 11.8135C0.592929 12.2363 0.814304 12.6222 1.12263 12.9326C1.43096 13.243 1.81542 13.4669 2.23751 13.5819C3.78653 14 10 14 10 14C10 14 16.2135 14 17.7633 13.5819C18.1855 13.467 18.57 13.2431 18.8783 12.9327C19.1867 12.6223 19.408 12.2364 19.5202 11.8135C19.935 10.2537 19.935 7 19.935 7C19.935 7 19.935 3.7463 19.5194 2.18652ZM7.96749 9.95399V4.04601L13.161 7L7.96749 9.95399Z" fill="black"/>
</svg>
