<svg width="15" height="14" viewBox="0 0 15 14" fill="none" xmlns="http://www.w3.org/2000/svg">
<path d="M10.2723 8.38951C10.0982 8.30259 9.24188 7.88376 9.08246 7.82543C8.92245 7.76768 8.8064 7.73909 8.68976 7.91293C8.5743 8.08618 8.24021 8.47643 8.13881 8.59193C8.03741 8.70801 7.93543 8.72201 7.76135 8.63568C7.58728 8.54818 7.02578 8.36559 6.36054 7.77526C5.843 7.3156 5.49308 6.74801 5.39169 6.57418C5.29029 6.40093 5.38114 6.30701 5.46788 6.22068C5.54642 6.1431 5.64254 6.01826 5.72929 5.91735C5.81662 5.81585 5.84534 5.74351 5.90395 5.62743C5.96198 5.51193 5.93326 5.41102 5.8893 5.3241C5.84534 5.23718 5.49719 4.38377 5.35242 4.03668C5.21058 3.69893 5.06698 3.74502 4.9603 3.73918C4.85891 3.73452 4.74286 3.73335 4.62622 3.73335C4.51017 3.73335 4.32144 3.77652 4.16201 3.95035C4.00259 4.1236 3.55245 4.54302 3.55245 5.39643C3.55245 6.24926 4.17667 7.07351 4.26341 7.1896C4.35074 7.30509 5.49191 9.05626 7.23912 9.80701C7.65468 9.98551 7.9788 10.0923 8.232 10.1716C8.64932 10.304 9.02912 10.2853 9.32863 10.2404C9.6633 10.1908 10.359 9.82101 10.5044 9.41617C10.6497 9.01134 10.6497 8.66426 10.6058 8.59193C10.5624 8.51959 10.4464 8.47643 10.2717 8.38951M7.09435 12.7079H7.09201C6.05445 12.708 5.03596 12.4304 4.14326 11.9041L3.93167 11.7793L1.73901 12.3521L2.32395 10.2241L2.18622 10.0059C1.60622 9.08675 1.29939 8.02299 1.30118 6.9376C1.30177 3.75843 3.90119 1.17194 7.0967 1.17194C8.64404 1.17194 10.0988 1.77277 11.1925 2.86244C11.7321 3.39713 12.1598 4.03302 12.4509 4.73332C12.7419 5.43362 12.8905 6.18442 12.8881 6.94226C12.8864 10.1214 10.2875 12.7079 7.09435 12.7079ZM12.0253 2.03469C11.3796 1.38773 10.6112 0.874752 9.76475 0.52549C8.91831 0.176227 8.01065 -0.00237781 7.09435 2.39035e-05C3.25236 2.39035e-05 0.125433 3.1121 0.123675 6.93701C0.123675 8.15968 0.444281 9.35317 1.05443 10.4049L0.0650635 14L3.76052 13.0352C4.78247 13.5893 5.92765 13.8797 7.09142 13.8798H7.09435C10.9358 13.8798 14.0633 10.7678 14.065 6.94226C14.0679 6.03067 13.8891 5.12757 13.539 4.2852C13.1888 3.44283 12.6744 2.67791 12.0253 2.03469Z" fill="black"/>
</svg>
